<svg xmlns:inkscape="http://www.inkscape.org/namespaces/inkscape" xmlns:sodipodi="http://sodipodi.sourceforge.net/DTD/sodipodi-0.dtd" xmlns="http://www.w3.org/2000/svg" xmlns:svg="http://www.w3.org/2000/svg" version="1.1" id="svg2002" sodipodi:docname="airport.svg" x="0px" y="0px" viewBox="0 0 411.6 409.9" style="enable-background:new 0 0 411.6 409.9;" xml:space="preserve" inkscape:version="1.2.2 (b0a8486541, 2022-12-01)" width="48px" height="48px"><defs id="defs3066"/><style type="text/css" id="style2992"> .st0{fill:#7E7E7E;} .bg0{fill:#ffffff;fill-opacity:1;} </style><sodipodi:namedview bordercolor="#666666" borderopacity="1.0" id="namedview2004" inkscape:current-layer="layer1" inkscape:cx="397.17924" inkscape:cy="559.3065" inkscape:document-units="mm" inkscape:pagecheckerboard="0" inkscape:pageopacity="0.0" inkscape:pageshadow="2" inkscape:window-height="1000" inkscape:window-maximized="1" inkscape:window-width="1920" inkscape:window-x="-11" inkscape:window-y="-11" inkscape:zoom="0.76791526" pagecolor="#ffffff" showgrid="false" inkscape:showpageshadow="2" inkscape:deskcolor="#d1d1d1"/><g id="layer1" inkscape:groupmode="layer" inkscape:label="Layer 1"><path class="st0" d="M209,21.9c-101.6,0-184,82.4-184,184c0,101.6,82.4,184,184,184c101.6,0,184-82.4,184-184    C393,104.3,310.6,21.9,209,21.9z M323.1,231.4c-2,0-3.9-0.3-5.7-1L229.1,205v79.1l33.5,22.7c1.1,0.7,2.2,1.5,2.9,2.6    c1.5,1.8,2.3,4,2.3,6.3c0,5.8-5,10.5-11.1,10.5c-1.3,0-2.7-0.3-4-0.7l-45.8-14.5l-48.1,15.1c-0.6,0.1-1.1,0.1-1.7,0.1    c-6.1,0-11-4.7-11.1-10.5c0-2.5,1-5,2.7-6.8c0.7-0.8,1.6-1.5,2.5-2.1l33.5-22.7V205l-88.9,25.6c-1.6,0.6-3.3,0.8-5.1,0.8h0    c-9.1,0-16.6-7.1-16.5-15.8c0-5.1,2.6-9.9,7.1-12.8l103.5-55.7V94.4c0-11.6,9.9-21.1,22.1-21.1s22.1,9.4,22.1,21.1v52.7    c0,0,101.7,54.5,101.7,54.6c5.4,2.7,8.9,8.1,8.9,14C339.7,224.4,332.2,231.4,323.1,231.4z" id="path3062"/><path class="bg0" style="stroke-width:1.30223" d="m 150.58284,322.85779 c -4.45177,-3.50176 -4.68929,-10.04251 -0.50118,-13.80094 1.61151,-1.44616 10.10854,-7.49049 18.8823,-13.43181 l 15.95228,-10.80242 v -40.27424 c 0,-37.74057 -0.14337,-40.23258 -2.2789,-39.61197 -57.50429,16.71143 -89.481934,25.55676 -92.378885,25.5529 -4.487003,-0.006 -11.428403,-4.07396 -13.474173,-7.89652 -2.125562,-3.97165 -1.88583,-11.12657 0.494529,-14.75945 1.243783,-1.89826 22.111501,-13.8872 54.737829,-31.44802 l 52.72773,-28.38022 0.41149,-29.40128 c 0.39518,-28.235562 0.53286,-29.59649 3.47273,-34.325102 7.85169,-12.629015 26.9988,-13.253118 36.00557,-1.173607 2.3812,3.193566 2.66027,6.108441 3.25557,34.004459 l 0.65111,30.51147 31.25345,16.81641 c 74.89158,40.29661 74.98633,40.35091 76.91603,44.08254 5.23641,10.1261 -1.87615,21.97419 -13.19138,21.97419 -1.90815,0 -22.59384,-5.52277 -45.96817,-12.27281 -23.37434,-6.75004 -44.1103,-12.67359 -46.07992,-13.16344 l -3.58112,-0.89064 0.0533,40.18466 0.0533,40.18465 18.47234,12.37182 c 20.22192,13.54361 22.77492,16.64228 19.10242,23.18532 -3.84425,6.84901 -6.68773,6.68316 -33.73732,-1.96771 l -24.75334,-7.91652 -24.34346,7.67362 c -13.38888,4.2205 -25.32881,7.67362 -26.53316,7.67362 -1.20434,0 -3.73374,-1.21453 -5.62089,-2.69896 z" id="path3068"/></g></svg>